<svg xmlns="http://www.w3.org/2000/svg" width="25" height="25" fill="none">
  <rect width="25" height="25" fill="#282828" opacity=".6" rx="5.682"/>
  <path fill="#000" d="M12.374 10.056a2.316 2.316 0 1 0 0 4.633 2.316 2.316 0 0 0 0-4.633Zm9.278-2.289a6.102 6.102 0 0 0-.393-2.111 3.738 3.738 0 0 0-2.167-2.168 6.102 6.102 0 0 0-2.112-.392c-1.205-.066-1.56-.066-4.606-.066s-3.401 0-4.607.066a6.101 6.101 0 0 0-2.111.392 3.738 3.738 0 0 0-2.168 2.168 6.101 6.101 0 0 0-.392 2.111c-.066 1.206-.066 1.56-.066 4.607 0 3.046 0 3.4.066 4.606a6.41 6.41 0 0 0 .392 2.121c.187.492.477.938.85 1.308.372.376.822.666 1.318.85.675.255 1.39.388 2.111.393 1.206.065 1.56.065 4.607.065 3.046 0 3.4 0 4.606-.065a6.102 6.102 0 0 0 2.112-.393 3.635 3.635 0 0 0 1.317-.85c.374-.37.664-.816.85-1.308a6.167 6.167 0 0 0 .393-2.121c.065-1.205.065-1.56.065-4.606s0-3.401-.065-4.607Zm-2.373 7.475a5.353 5.353 0 0 1-.365 1.682 3.606 3.606 0 0 1-1.99 1.99c-.542.2-1.114.31-1.691.327H9.515a5.356 5.356 0 0 1-1.692-.327 3.278 3.278 0 0 1-1.224-.803 3.28 3.28 0 0 1-.766-1.187 5.13 5.13 0 0 1-.317-1.691V9.515a5.13 5.13 0 0 1 .317-1.692A3.28 3.28 0 0 1 6.637 6.6a3.354 3.354 0 0 1 1.186-.766c.543-.2 1.114-.31 1.692-.327h5.718a5.354 5.354 0 0 1 1.691.327 3.28 3.28 0 0 1 1.224.804c.338.335.6.74.766 1.186.2.543.31 1.114.327 1.692v2.859c0 1.925.066 2.12.038 2.859v.01Zm-1.495-6.951a2.225 2.225 0 0 0-1.318-1.318 3.738 3.738 0 0 0-1.29-.205H9.572c-.441.004-.878.086-1.29.243a2.224 2.224 0 0 0-1.317 1.27 3.99 3.99 0 0 0-.196 1.29v5.606c.009.44.091.876.243 1.29a2.224 2.224 0 0 0 1.317 1.317 3.99 3.99 0 0 0 1.243.242h5.606c.44-.004.877-.086 1.29-.242a2.225 2.225 0 0 0 1.317-1.318c.156-.412.238-.849.242-1.29V9.572c0-.442-.082-.879-.242-1.29v.01Zm-5.41 7.652a3.56 3.56 0 0 1-3.56-3.57 3.57 3.57 0 1 1 3.56 3.57Zm3.737-6.438a.84.84 0 0 1 0-1.672.84.84 0 0 1 0 1.672Z"/>
</svg>
